<svg xmlns="http://www.w3.org/2000/svg" viewBox="0 0 1512.47 971.62"><defs><style>.cls-1{fill:#fcee21;}</style></defs><g id="Layer_2" data-name="Layer 2"><g id="Layer_1-2" data-name="Layer 1"><g id="Group_3" data-name="Group 3"><path id="Path_11" data-name="Path 11" class="cls-1" d="M4,845c36.47,13.45,77.34,10.75,112.73-4.71A146,146,0,0,0,164,807.34c14-14.78,27.64-34.8,25.06-56.2-2.14-17.9-16.2-35.29-35.61-34-17.85,1.15-29.58,16.88-35.54,32.29-6.77,17.49-5.7,37.23-1.47,55.21a118.78,118.78,0,0,0,26.21,51.33c24.56,27.87,63.07,38.73,98.24,25.93C257,876,271.42,865.8,281,851.46c10.84-16.2,14.77-38.12,6.71-56.3-7.4-16.7-27.06-27.35-45.06-21.85-9.43,2.88-16.08,10.08-20.28,18.79-5.07,10.5-8.69,22-12.07,33.11-12.83,42.27-14.76,91.93,18.83,125.38,14.13,14.06,33.19,22.26,53.27,20.88,23.31-1.61,44.61-13.45,63.76-26A324.31,324.31,0,0,0,437,855.62,318.14,318.14,0,0,0,453.54,828c3.62-6.75-6.66-12.77-10.28-6a312.65,312.65,0,0,1-69.75,87.8,300.28,300.28,0,0,1-45.8,33.1c-17.42,10.23-38.13,19.74-58.86,16.1-35.56-6.23-54.83-44-55.59-77.21-.5-22,5-43.52,12-64.18,5.16-15.1,10.93-36.92,31.29-33.45,18.13,3.08,25.39,21.63,23.14,38.26-2.06,15.2-11.08,28.82-23.27,37.89-24.2,18-58.48,20.13-84.42,4.75-28.75-17-45.3-50.69-46.86-83.43-.72-15.17,2.37-31.48,12.57-43.31,4.06-4.72,9.37-8.73,15.76-9.32,7.71-.72,14.68,3.57,18.86,9.85,10.81,16.23,2.5,35.72-8,49.76a128.32,128.32,0,0,1-37.69,33.24c-28.49,16.83-63.35,23.82-96,18a136.45,136.45,0,0,1-23.43-6.39C0,830.86-3.1,842.36,4,845Z"/></g><g id="Group_4" data-name="Group 4"><path id="Path_12" data-name="Path 12" class="cls-1" d="M1094.07,342.93c50.78-92.44,102-185.82,169.14-267.66a761.94,761.94,0,0,1,59.8-65L1313.66,3q-66.17,147.67-132.32,295.36l-37.58,83.86c-3.16,7.06,5.66,12.14,10.28,6l162.45-215.37,46.16-61.19-10.88-4.59-110,307.68-30.86,86.3c-2.32,6.5,7.48,10.2,10.88,4.58L1334.6,319.48l113.32-187,63.65-105c4-6.57-6.31-12.56-10.28-6L1388.48,207.57l-113.32,187-63.64,105,10.88,4.59,110-307.67,30.86-86.3c2.46-6.89-7.16-9.53-10.88-4.59L1189.92,321l-46.15,61.19,10.28,6L1286.37,92.89,1324,9c2.64-5.9-4.18-12.2-9.35-7.21-76.49,73.83-134.38,164-186.72,255.85-15,26.27-29.54,52.76-44.09,79.26-3.69,6.72,6.58,12.73,10.28,6Z"/></g></g></g></svg>