<svg xmlns="http://www.w3.org/2000/svg" viewBox="0 0 939.41 398.4"><defs><style>.cls-1,.cls-2{isolation:isolate;}.cls-2{font-size:187.7px;font-family:AmericanaStd, Americana Std;}.cls-3{fill:blue;}.cls-4{fill:#fcee21;}</style></defs><g id="Layer_2" data-name="Layer 2"><g id="Layer_1-2" data-name="Layer 1"><path id="Path_1" data-name="Path 1" d="M497.66,126.47c3.76-30.76,24.07-48.1,52.34-44.64,27.11,3.32,43,24.09,39.86,50-.89,7.22-5.49,10.82-12.71,9.94l-54.58-6.68-.14,1.16c-1.73,14.18,5.69,24.5,18.89,26.12,9.54,1.16,16.18-1.28,24.24-8.71a10.65,10.65,0,0,1,8.94-2.8c5.61.69,9.73,4.81,9,10.78a13.52,13.52,0,0,1-2.55,6.11c-7.77,11-23.43,16.14-41.89,13.89C509.18,178,493.87,157.42,497.66,126.47Zm67.71-2.3c1-12.55-6-21.65-17.46-23s-20.73,6-23.12,18.07Z"/><path id="Path_2" data-name="Path 2" d="M76.43,199.71,67,162.63c-2.21-8.71,1.07-14.92,8.82-16.9s13.61,1.91,15.83,10.62l8.79,34.47c4.1,16.11,15.67,24.38,31.51,20.34s22-16.81,17.86-32.91L141,143.77c-2.22-8.7,1.07-14.92,8.82-16.89s13.61,1.91,15.83,10.61l9.44,37.09c7.06,27.68-7.33,51.37-37.45,59S83.48,227.4,76.43,199.71Z"/><g id="things" class="cls-1"><text class="cls-2" transform="matrix(0.99, -0.12, 0.12, 0.99, 360.99, 351.82)">things</text></g><path id="Path_3" data-name="Path 3" class="cls-3" d="M826.51,8.47C845.17,25,856.62,45.14,863,73.82s4.19,53.45-5.39,74.16c-3.54,7.68-7.26,11.27-12.61,12.45-4.83,1.07-9.28-1.17-10.17-5.2a14.83,14.83,0,0,1,.56-7,143.94,143.94,0,0,0,1.23-68.45,150.25,150.25,0,0,0-30.51-62.16,13.83,13.83,0,0,1-3.51-6.3c-.84-3.78,2.06-7.73,7.07-8.84C815.07,1.25,820.05,3,826.51,8.47Z"/><path id="Path_4" data-name="Path 4" class="cls-3" d="M40.22,270c-18.69-16.55-30.16-36.63-36.55-65.3S-.6,151.27,9,130.55c3.54-7.69,7.24-11.28,12.59-12.47,4.83-1.08,9.28,1.15,10.18,5.19a14.92,14.92,0,0,1-.55,7A144.11,144.11,0,0,0,30,198.75a150.38,150.38,0,0,0,30.6,62.12,13.93,13.93,0,0,1,3.52,6.3c.84,3.77-2,7.73-7,8.84C51.67,277.22,46.68,275.48,40.22,270Z"/><g id="Group_1" data-name="Group 1"><path id="Path_5" data-name="Path 5" class="cls-4" d="M132.84,286.08a245.64,245.64,0,0,1,15.07-102.2l-16.72,2.19a329.25,329.25,0,0,1,28,88.79c1.77,10.63,17.45,7.36,18-2.43,2.15-40.53,4.44-82.53,22.76-119.55l-16.72-2.19L220,249.52c2.86,7.69,15.69,9.65,17.64,0A678.29,678.29,0,0,1,277,121.42H259.35l10.74,73.37c1.69,11.54,2.3,52.64,24.57,44.33,10.07-3.76,11.16-17.54,13.64-26.49l9.76-35.29,20.33-73.52L321.67,106q23,46,49.17,90.38c3.82,6.47,15,5.7,16.73-2.19q5.88-27.54,13.34-54.71,3.75-13.57,7.91-27c1.19-3.84,2-8.24,3.86-11.83-1.3,2.49-2,.83.12,4a38.71,38.71,0,0,1,2.44,4.53c11.18,23.79,6.91,53,28.05,72,4,3.62,11.71,3.77,14.37-1.85q29.22-61.56,55.08-124.63H495.1L513.55,120c3.14,11.11,6,22.34,9.44,33.37,2.2,7.15,5.41,14.83,12.27,18.69,18.77,10.56,28.18-13.12,33-26.33Q580.1,113.34,591.91,81l-16.73,2.18q14.52,33,27.13,66.87c3.1,8.3,14.8,9,17.64,0A554.34,554.34,0,0,1,662.76,49.51L646,47.32a247.12,247.12,0,0,0,26.53,63.94c4.77,8.07,16.6,4.26,17.05-4.62a175.31,175.31,0,0,1,33-93.4c6.87-9.59-9-18.73-15.8-9.23a192.71,192.71,0,0,0-35.53,102.63L688.36,102a229.22,229.22,0,0,1-24.68-59.56c-1.94-7.5-12.95-9.08-16.72-2.18a578.69,578.69,0,0,0-44.65,104.86H620q-13.47-36-29-71.24c-3.47-7.92-14.33-4.36-16.72,2.19l-18,49.29c-2.9,8-5.5,16.12-8.74,24-.52,1.25-2.71,6.73-3.67,6.65-.66-.06-2.39-4.78-2.65-5.53-5.52-15.71-9.18-32.34-13.71-48.36L512.75,49.87c-2.66-9.42-14.4-7.89-17.64,0q-25,60.84-53.24,120.26l14.37-1.84c-11.91-10.71-13.81-27.25-17-42.11-3-14.1-7.39-35-22.11-41.52-21.77-9.61-26.77,25.14-30.67,38.57Q377,156,369.93,189.36l16.72-2.19q-26.17-44.31-49.18-90.38c-3.6-7.21-14.72-5.05-16.72,2.19L288.22,216.62c-.27,1-2,5-1.62,5.88q8.52,3.08,6.37-.43a5.5,5.5,0,0,1-.7-1.91c-.42-4.57-1.45-9.2-2.11-13.74L286,178l-9-61.38c-1.49-10.14-14.68-7.08-17.65,0A678.7,678.7,0,0,0,220,244.68h17.65l-36.81-98.83c-2.5-6.71-12.93-9.84-16.73-2.18-19.85,40.11-22.93,84.82-25.26,128.78l18-2.43A345.35,345.35,0,0,0,147,176.86c-3.73-7.75-14.23-4.5-16.72,2.18A258.94,258.94,0,0,0,114.55,286.1c.75,11.7,19,11.78,18.29,0Z"/></g><path id="Path_6" data-name="Path 6" d="M298,156c.86-31,19.46-50.14,47.93-49.35,27.3.77,45.1,20,44.37,46.08-.2,7.28-4.46,11.29-11.72,11.09l-55-1.54,0,1.17c-.4,14.28,8,23.86,21.25,24.23,9.61.27,16-2.79,23.31-10.94a10.68,10.68,0,0,1,8.64-3.63c5.65.16,10.14,3.88,10,9.9a13.38,13.38,0,0,1-2,6.32c-6.7,11.68-21.8,18.27-40.39,17.75C314.31,206.23,297.14,187.15,298,156Zm67.19-8.64c-.19-12.59-8-21-19.53-21.3s-20.08,7.88-21.33,20.16Z"/><path id="Path_7" data-name="Path 7" d="M423.26,184.43l-16.41-67.94c-2.11-8.73,1.56-15,9.85-17s14.41,1.88,16.52,10.6L447.69,170l24.18-5.84c7.16-1.73,13,1.21,14.6,8s-2.07,12.06-9.32,13.81l-37.37,9C431.48,197,425.37,193.16,423.26,184.43Z"/><path id="Path_8" data-name="Path 8" d="M608.34,147.87a14.53,14.53,0,0,1-.85-4.88c.17-6,4.78-9.93,10.88-9.76,4.22.12,7.76,2.11,11.24,6.25,4.93,6.89,10.77,10.11,20.73,10.39,9.52.27,15.83-3.5,16-9.88.16-5.21-3.09-8.09-12.46-10.42l-16.07-3.87c-18.75-4.58-28-14.46-27.58-28.74C610.76,78.55,627,67.15,652,67.86c19.93.57,34.31,10,37.15,21a14.92,14.92,0,0,1,.51,3.88c-.15,5.3-3.57,8.88-10.31,8.69a12.49,12.49,0,0,1-9.4-4.3c-4.42-6-9.5-10.61-18.93-10.88-8.89-.25-15.2,3.79-15.38,10-.14,5,3.54,8.46,13.09,10.8l15.79,3.86c20.35,4.9,28.59,12.68,28.17,27.05-.54,19.13-18,31-43.46,30.31C627.1,167.63,612.6,159.31,608.34,147.87Z"/><path id="Path_9" data-name="Path 9" d="M727.09,149.37a14.46,14.46,0,0,1-2.74-4.12c-2.27-5.57.37-11,6-13.31,3.91-1.59,8-1.2,12.8,1.19,7.28,4.3,13.93,4.91,23.16,1.15,8.82-3.59,13.08-9.58,10.67-15.49-2-4.83-6.09-6.15-15.6-4.52l-16.27,2.94c-19,3.36-31.44-2-36.82-15.19-6.94-17.06,3.32-34,26.45-43.44,18.48-7.52,35.46-4.63,42.47,4.25a15.25,15.25,0,0,1,2,3.34c2,4.92.3,9.58-5.94,12.12A12.52,12.52,0,0,1,763,78.13c-6.45-3.68-13-5.88-21.7-2.32-8.24,3.35-12.39,9.59-10.06,15.34,1.9,4.66,6.65,6.32,16.33,4.61l16-2.83c20.6-3.72,31.27.08,36.68,13.4,7.21,17.72-4,35.67-27.56,45.25C752.23,159.91,735.6,158.13,727.09,149.37Z"/><path id="Path_10" data-name="Path 10" d="M196.24,201.28a14.42,14.42,0,0,1-1-4.85c0-6,4.49-10.06,10.59-10.06,4.23,0,7.82,1.88,11.42,5.92,5.12,6.74,11.05,9.79,21,9.78,9.53,0,15.72-4,15.72-10.33,0-5.22-3.33-8-12.76-10.06l-16.17-3.41c-18.87-4-28.39-13.64-28.4-27.93,0-18.41,15.89-30.27,40.86-30.29,20,0,34.59,9.07,37.74,19.93a14.83,14.83,0,0,1,.63,3.86c0,5.3-3.32,9-10,9a12.51,12.51,0,0,1-9.53-4c-4.59-5.84-9.8-10.32-19.23-10.32-8.89,0-15.09,4.23-15.09,10.43,0,5,3.78,8.35,13.39,10.41l15.9,3.41c20.49,4.3,28.94,11.84,28.94,26.22,0,19.13-17.14,31.54-42.57,31.55C215.56,220.5,200.82,212.6,196.24,201.28Z"/></g></g></svg>